<?xml version="1.0" encoding="UTF-8" standalone="no" ?>
<!DOCTYPE svg PUBLIC "-//W3C//DTD SVG 1.1//EN" "http://www.w3.org/Graphics/SVG/1.1/DTD/svg11.dtd">
<svg xmlns="http://www.w3.org/2000/svg" xmlns:xlink="http://www.w3.org/1999/xlink" version="1.1" width="500" height="500" viewBox="0 0 500 500" xml:space="preserve">
<desc>Created with Fabric.js 3.6.3</desc>
<defs>
</defs>
<g transform="matrix(2.1262573707943115 0 0 2.1262573707943115 250 259)"  >
<g style=""   >
		<g transform="matrix(1 0 0 1 0.054516600406088855 0)"  >
<path style="stroke: none; stroke-width: 1; stroke-dasharray: none; stroke-linecap: butt; stroke-dashoffset: 0; stroke-linejoin: miter; stroke-miterlimit: 4; fill: rgb(21,91,161); fill-rule: nonzero; opacity: 1;"  transform=" translate(-67.05451660040609, -77.15)" d="M 24.4 1.8 L 0.1 106.2 c -0.2 0.9 0.2 1.8 1 2.4 l 67.3 45.7 l 64.7 -45.8 c 0.8 -0.5 1.1 -1.4 0.9 -2.3 L 111.4 1.8 C 111.1 0.8 110.1 0 109 0 H 26.8 C 25.6 0 24.6 0.8 24.4 1.8 z" stroke-linecap="round" />
</g>
		<g transform="matrix(1 0 0 1 0.0046706452687175215 -1.0125000000000028)"  >
<path style="stroke: none; stroke-width: 1; stroke-dasharray: none; stroke-linecap: butt; stroke-dashoffset: 0; stroke-linejoin: miter; stroke-miterlimit: 4; fill: rgb(255,255,255); fill-rule: nonzero; opacity: 1;"  transform=" translate(-67.00467064526872, -76.1375)" d="M 27.9 7.3 L 5.7 103 c -0.2 0.8 0.2 1.7 0.9 2.2 l 60.3 41 c 0.8 0.5 1.9 0.5 2.7 0 l 57.9 -41 c 0.7 -0.5 1 -1.3 0.8 -2.1 L 107.6 7.4 c -0.2 -1 -1.1 -1.7 -2.2 -1.7 H 30.1 C 29.1 5.7 28.2 6.4 27.9 7.3 z" stroke-linecap="round" />
</g>
		<g transform="matrix(1 0 0 1 -26.08041250361925 16.05000000000001)"  >
<path style="stroke: none; stroke-width: 1; stroke-dasharray: none; stroke-linecap: butt; stroke-dashoffset: 0; stroke-linejoin: miter; stroke-miterlimit: 4; fill: rgb(39,162,247); fill-rule: nonzero; opacity: 1;"  transform=" translate(-40.91958749638075, -93.20000000000002)" d="M 24.7 49.3 L 13.8 97.9 c -0.2 0.7 0.1 1.5 0.8 1.9 l 52.3 36.9 c 0.4 0.3 0.8 0.4 1.2 0.4 V 49.3 H 24.7 z" stroke-linecap="round" />
</g>
		<g transform="matrix(1 0 0 1 27.18085223985181 16.049999999999983)"  >
<path style="stroke: none; stroke-width: 1; stroke-dasharray: none; stroke-linecap: butt; stroke-dashoffset: 0; stroke-linejoin: miter; stroke-miterlimit: 4; fill: rgb(23,104,183); fill-rule: nonzero; opacity: 1;"  transform=" translate(-94.18085223985182, -93.19999999999999)" d="M 119.5 99.8 c 0.6 -0.4 0.9 -1.2 0.7 -1.9 l -10.1 -48.6 h -42 v 87.8 c 0.4 0 0.8 -0.1 1.1 -0.4 L 119.5 99.8 z" stroke-linecap="round" />
</g>
</g>
</g>
<g transform="matrix(0.5 0 0 0.5 250.00000000000003 139.94)" style=""  ><path fill="#1768b7" opacity="1" d="M-122.72 16.34L-122.72 1.83L-111.85 1.83L-104.57 9.06L-104.57 16.34L-97.34 16.34L-97.34 5.47L-104.57-1.81L-97.34-9.09L-97.34-20.06L-104.57-20.06L-104.57-12.73L-111.85-5.45L-122.72-5.45L-122.72-20.06L-130.00-20.06L-130.00 16.34Z"/><path fill="#1768b7" opacity="1" d="M-56.78 16.34L-56.78-20.06L-64.01-20.06L-64.01 4.17L-82.16-20.06L-89.44-20.06L-89.44 16.34L-82.16 16.34L-82.16-7.95L-64.01 16.34Z"/><path fill="#1768b7" opacity="1" d="M-41.08 9.06L-41.08-12.78L-22.93-12.78L-22.93 9.06ZM-19.29 16.34L-15.70 12.75L-15.70-16.37L-19.29-20.06L-44.77-20.06L-48.36-16.37L-48.36 12.75L-44.77 16.34Z"/><path fill="#1768b7" opacity="1" d="M-0.52 16.34L-0.52 9.06L6.71 1.83L10.35 1.83L17.63 9.06L17.63 16.34L24.86 16.34L24.86 5.47L17.63-1.81L24.86-9.09L24.86-20.06L17.63-20.06L17.63-12.73L10.35-5.45L6.71-5.45L-0.52-12.73L-0.52-20.06L-7.80-20.06L-7.80-9.09L-0.52-1.81L-7.80 5.47L-7.80 16.34Z"/><path fill="#1768b7" opacity="1" d=""/><path fill="#1768b7" opacity="1" d="M64.06 16.34L64.06 1.83L74.93 1.83L82.21 9.06L82.21 16.34L89.44 16.34L89.44 5.47L82.21-1.81L89.44-9.09L89.44-20.06L82.21-20.06L82.21-12.73L74.93-5.45L64.06-5.45L64.06-20.06L56.78-20.06L56.78 16.34Z"/><path fill="#1768b7" opacity="1" d="M126.41 16.34L130.00 12.75L130.00-4.52L113.62-4.52L113.62 2.76L122.77 2.76L122.77 9.06L104.62 9.06L104.62-12.78L122.77-12.78L122.77-9.14L130.00-9.14L130.00-16.37L126.41-20.06L100.93-20.06L97.34-16.37L97.34 12.75L100.93 16.34Z"/></g><g transform="matrix(1.72420780986052 0 0 1.6092223524814244 250 161.58616647127786)"  >
<path style="stroke: none; stroke-width: 1; stroke-dasharray: none; stroke-linecap: butt; stroke-dashoffset: 0; stroke-linejoin: miter; stroke-miterlimit: 4; fill: rgb(39,162,247); fill-rule: nonzero; opacity: 1;"  transform=" translate(-49.95, -50)" d="M 91.7 49 H 8.3 c -0.6 0 -1 0.4 -1 1 s 0.4 1 1 1 h 83.3 c 0.6 0 1 -0.4 1 -1 S 92.2 49 91.7 49 z" stroke-linecap="round" />
</g>
<g transform="matrix(1 0 0 1 250 280)"  >
<g style=""   >
		<g transform="matrix(1 0 0 1 7.2682141977970645 0)"  >
<path style="stroke: none; stroke-width: 1; stroke-dasharray: none; stroke-linecap: butt; stroke-dashoffset: 0; stroke-linejoin: miter; stroke-miterlimit: 4; fill: rgb(255,255,255); fill-rule: nonzero; opacity: 1;"  transform=" translate(-56.768214197797064, -49.5)" d="M 68.479 66.744 c -0.551 0 -0.979 0.447 -0.979 1 V 77 h -43 V 21 h 43 v 9.219 c 0 0.552 0.448 1 1 1 c 0.553 0 1 -0.448 1 -1 v -14.8 C 69.5 11.328 66.172 8 62.081 8 H 29.919 c -4.091 0 -7.419 3.328 -7.419 7.419 v 68.162 c 0 4.091 3.328 7.419 7.419 7.419 h 32.162 c 4.091 0 7.419 -3.328 7.419 -7.419 V 67.744 C 69.5 67.191 69.029 66.744 68.479 66.744 z M 24.5 15.419 c 0 -2.988 2.432 -5.419 5.419 -5.419 h 32.162 c 2.987 0 5.419 2.431 5.419 5.419 V 19 h -43 V 15.419 z M 67.5 83.581 c 0 2.987 -2.432 5.419 -5.419 5.419 H 29.919 c -2.987 0 -5.419 -2.432 -5.419 -5.419 V 79 h 43 V 83.581 z M 45.866 87.041 c 1.477 0 2.675 -1.197 2.675 -2.675 s -1.198 -2.675 -2.675 -2.675 c -1.478 0 -2.675 1.197 -2.675 2.675 S 44.389 87.041 45.866 87.041 z M 52.5 14 h -9 c -0.552 0 -1 0.448 -1 1 s 0.448 1 1 1 h 9 c 0.553 0 1 -0.448 1 -1 S 53.053 14 52.5 14 z M 39.18 13.909 c -0.591 0 -1.07 0.479 -1.07 1.07 s 0.479 1.07 1.07 1.07 c 0.591 0 1.07 -0.479 1.07 -1.07 S 39.771 13.909 39.18 13.909 z M 76.807 47.985 v -3.406 c 0 -4.641 -3.775 -8.417 -8.416 -8.417 c -4.642 0 -8.418 3.775 -8.418 8.417 c 0 0.552 0.447 1 1 1 s 1 -0.448 1 -1 c 0 -3.538 2.879 -6.417 6.418 -6.417 c 3.538 0 6.416 2.878 6.416 6.417 v 2.696 c -0.329 -0.055 -0.665 -0.091 -1.01 -0.091 H 62.98 c -3.362 0 -6.098 2.736 -6.098 6.099 v 3.906 c 0 3.361 2.735 6.097 6.098 6.097 h 10.816 c 3.363 0 6.1 -2.735 6.1 -6.097 v -3.906 C 79.896 51.015 78.649 49.036 76.807 47.985 z M 77.896 57.189 c 0 2.259 -1.839 4.097 -4.1 4.097 H 62.98 c -2.26 0 -4.098 -1.838 -4.098 -4.097 v -3.906 c 0 -2.26 1.838 -4.099 4.098 -4.099 h 10.816 c 2.261 0 4.1 1.839 4.1 4.099 V 57.189 z M 51.912 65.522 c -0.096 -0.099 -0.253 -0.102 -0.354 -0.006 c -0.1 0.096 -0.102 0.254 -0.006 0.354 l 0.173 0.177 c 0.05 0.05 0.114 0.075 0.179 0.075 c 0.063 0 0.127 -0.023 0.175 -0.071 c 0.099 -0.098 0.101 -0.256 0.004 -0.354 L 51.912 65.522 z M 52.088 33.711 c -0.096 -0.096 -0.255 -0.095 -0.354 0.003 l -0.174 0.179 c -0.096 0.1 -0.092 0.258 0.008 0.354 c 0.048 0.046 0.11 0.069 0.173 0.069 c 0.065 0 0.132 -0.026 0.181 -0.077 l 0.17 -0.174 C 52.188 33.966 52.187 33.808 52.088 33.711 z M 54.268 67.64 c -0.108 -0.085 -0.266 -0.068 -0.351 0.042 c -0.086 0.108 -0.066 0.266 0.042 0.351 l 0.198 0.153 c 0.045 0.034 0.099 0.051 0.151 0.051 c 0.075 0 0.149 -0.034 0.199 -0.099 c 0.083 -0.109 0.062 -0.267 -0.048 -0.351 L 54.268 67.64 z M 90.52 48.172 l 0.016 0.247 c 0.008 0.133 0.118 0.235 0.25 0.235 c 0.005 0 0.01 0 0.015 0 c 0.138 -0.008 0.243 -0.126 0.235 -0.264 l -0.018 -0.253 c -0.009 -0.138 -0.139 -0.243 -0.267 -0.232 C 90.613 47.915 90.51 48.034 90.52 48.172 z M 49.975 36.116 c -0.11 -0.082 -0.268 -0.059 -0.35 0.052 l -0.147 0.2 c -0.081 0.111 -0.057 0.268 0.055 0.349 c 0.044 0.032 0.096 0.048 0.147 0.048 c 0.077 0 0.153 -0.036 0.202 -0.103 l 0.145 -0.196 C 50.109 36.354 50.085 36.198 49.975 36.116 z M 48.218 38.791 c -0.121 -0.064 -0.273 -0.021 -0.339 0.1 l -0.118 0.218 c -0.065 0.122 -0.019 0.273 0.103 0.338 c 0.038 0.02 0.078 0.029 0.118 0.029 c 0.089 0 0.176 -0.048 0.221 -0.132 l 0.116 -0.214 C 48.384 39.008 48.339 38.856 48.218 38.791 z M 49.875 63.1 c -0.082 -0.11 -0.238 -0.136 -0.349 -0.055 c -0.112 0.081 -0.136 0.237 -0.055 0.35 l 0.148 0.2 c 0.049 0.065 0.124 0.101 0.2 0.101 c 0.052 0 0.104 -0.017 0.149 -0.05 c 0.111 -0.082 0.133 -0.239 0.051 -0.35 L 49.875 63.1 z M 60.013 28.616 c -0.051 -0.129 -0.194 -0.193 -0.324 -0.143 l -0.116 0.046 c -0.128 0.05 -0.192 0.194 -0.143 0.323 c 0.039 0.099 0.133 0.16 0.233 0.16 c 0.03 0 0.061 -0.005 0.09 -0.017 c 0.001 0 0.061 -0.023 0.061 -0.023 l -0.034 -0.255 l 0.09 0.233 C 59.998 28.889 60.062 28.745 60.013 28.616 z M 48.196 60.415 c -0.065 -0.122 -0.217 -0.167 -0.338 -0.103 c -0.122 0.065 -0.168 0.217 -0.103 0.339 l 0.118 0.218 C 47.917 60.952 48.003 61 48.092 61 c 0.041 0 0.081 -0.01 0.119 -0.03 c 0.122 -0.065 0.167 -0.217 0.101 -0.339 L 48.196 60.415 z M 54.517 31.627 c -0.085 -0.11 -0.241 -0.131 -0.351 -0.047 l -0.197 0.152 c -0.109 0.085 -0.129 0.242 -0.044 0.351 c 0.05 0.063 0.123 0.096 0.197 0.096 c 0.054 0 0.108 -0.017 0.153 -0.053 l 0.193 -0.149 C 54.579 31.894 54.6 31.737 54.517 31.627 z M 78.886 30.145 c 0.034 0.019 0.069 0.027 0.103 0.027 c 0.084 0 0.162 -0.056 0.209 -0.143 c 0.066 -0.121 -0.006 -0.287 -0.127 -0.354 l -0.055 -0.03 c -0.12 -0.066 -0.246 -0.006 -0.312 0.115 c -0.066 0.121 0.006 0.287 0.127 0.354 L 78.886 30.145 z M 57.115 30.243 c 0.121 -0.067 0.164 -0.219 0.098 -0.34 c -0.067 -0.121 -0.22 -0.163 -0.34 -0.098 l -0.219 0.124 c -0.119 0.069 -0.16 0.222 -0.092 0.341 c 0.046 0.081 0.131 0.125 0.217 0.125 c 0.043 0 0.085 -0.011 0.125 -0.033 L 57.115 30.243 z M 56.644 69.837 l 0.217 0.122 c 0.038 0.021 0.08 0.032 0.122 0.032 c 0.087 0 0.172 -0.046 0.218 -0.128 c 0.067 -0.12 0.025 -0.272 -0.096 -0.34 l -0.211 -0.12 c -0.12 -0.067 -0.273 -0.029 -0.342 0.092 C 56.483 69.615 56.524 69.768 56.644 69.837 z M 90.345 45.427 c 0.018 0 0.035 -0.002 0.053 -0.005 c 0.135 -0.029 0.221 -0.162 0.191 -0.297 l -0.053 -0.246 c -0.028 -0.136 -0.162 -0.218 -0.297 -0.192 c -0.135 0.029 -0.221 0.162 -0.191 0.297 l 0.053 0.246 C 90.125 45.347 90.229 45.427 90.345 45.427 z M 78.882 69.628 l -0.104 0.058 c -0.121 0.065 -0.166 0.217 -0.101 0.339 c 0.045 0.083 0.131 0.131 0.22 0.131 c 0.04 0 0.081 -0.01 0.119 -0.03 l 0.112 -0.062 c 0.12 -0.068 0.162 -0.221 0.095 -0.341 C 79.152 69.602 79.001 69.561 78.882 69.628 z M 86.4 35.975 c -0.083 -0.109 -0.239 -0.131 -0.351 -0.047 c -0.109 0.084 -0.13 0.241 -0.046 0.351 l 0.147 0.197 c 0.049 0.066 0.125 0.102 0.201 0.102 c 0.052 0 0.104 -0.016 0.148 -0.049 c 0.111 -0.082 0.135 -0.239 0.053 -0.35 L 86.4 35.975 z M 84.023 65.764 l -0.175 0.174 c -0.098 0.098 -0.1 0.256 -0.003 0.354 c 0.05 0.049 0.114 0.074 0.179 0.074 c 0.063 0 0.127 -0.023 0.176 -0.071 l 0.181 -0.18 c 0.097 -0.099 0.095 -0.257 -0.003 -0.354 C 84.279 65.665 84.122 65.666 84.023 65.764 z M 87.867 60.61 l -0.119 0.218 c -0.067 0.12 -0.024 0.272 0.096 0.34 c 0.038 0.022 0.08 0.032 0.122 0.032 c 0.087 0 0.172 -0.046 0.218 -0.128 l 0.123 -0.222 c 0.065 -0.121 0.021 -0.273 -0.1 -0.34 C 88.087 60.445 87.935 60.488 87.867 60.61 z M 86.13 63.326 l -0.148 0.196 c -0.084 0.11 -0.063 0.267 0.046 0.351 c 0.046 0.035 0.1 0.052 0.152 0.052 c 0.075 0 0.149 -0.034 0.198 -0.098 l 0.154 -0.204 c 0.082 -0.111 0.059 -0.268 -0.053 -0.35 C 86.369 63.192 86.213 63.215 86.13 63.326 z M 46.855 41.686 c -0.128 -0.05 -0.273 0.017 -0.322 0.146 l -0.086 0.233 c -0.047 0.13 0.021 0.273 0.15 0.32 c 0.028 0.01 0.057 0.015 0.085 0.015 c 0.103 0 0.198 -0.063 0.235 -0.165 l 0.083 -0.228 C 47.05 41.878 46.985 41.734 46.855 41.686 z M 88.204 38.734 c -0.067 -0.122 -0.22 -0.165 -0.34 -0.099 c -0.121 0.066 -0.165 0.218 -0.1 0.339 l 0.12 0.219 c 0.045 0.083 0.131 0.131 0.22 0.131 c 0.04 0 0.081 -0.01 0.119 -0.03 c 0.121 -0.066 0.166 -0.218 0.101 -0.339 L 88.204 38.734 z M 90.39 54.395 c -0.134 -0.027 -0.269 0.057 -0.297 0.191 l -0.054 0.241 c -0.03 0.135 0.054 0.269 0.188 0.3 c 0.019 0.004 0.037 0.006 0.056 0.006 c 0.114 0 0.217 -0.078 0.244 -0.194 l 0.054 -0.247 C 90.61 54.556 90.524 54.423 90.39 54.395 z M 90.802 51.163 c -0.137 -0.021 -0.258 0.094 -0.267 0.231 l -0.019 0.247 c -0.012 0.138 0.091 0.259 0.229 0.27 c 0.007 0.001 0.014 0.001 0.021 0.001 c 0.129 0 0.238 -0.099 0.249 -0.229 l 0.019 -0.253 C 91.043 51.292 90.939 51.172 90.802 51.163 z M 89.271 41.575 c -0.13 0.048 -0.195 0.192 -0.147 0.322 l 0.088 0.236 c 0.038 0.101 0.133 0.163 0.234 0.163 c 0.029 0 0.059 -0.005 0.087 -0.016 c 0.13 -0.048 0.195 -0.192 0.147 -0.322 l -0.088 -0.236 C 89.543 41.592 89.397 41.527 89.271 41.575 z M 89.52 57.531 c -0.131 -0.048 -0.273 0.017 -0.322 0.146 l -0.088 0.234 c -0.048 0.129 0.018 0.273 0.146 0.322 c 0.029 0.011 0.059 0.016 0.088 0.016 c 0.102 0 0.196 -0.062 0.234 -0.162 l 0.088 -0.234 C 89.714 57.725 89.648 57.58 89.52 57.531 z M 84.227 33.503 c -0.099 -0.096 -0.256 -0.096 -0.354 0.003 c -0.097 0.099 -0.095 0.257 0.003 0.354 l 0.176 0.175 c 0.049 0.049 0.113 0.074 0.178 0.074 c 0.063 0 0.127 -0.024 0.176 -0.072 c 0.099 -0.098 0.099 -0.256 0.002 -0.354 L 84.227 33.503 z M 45.366 48.65 c 0.005 0 0.01 0 0.015 0 c 0.131 0 0.242 -0.103 0.25 -0.235 l 0.017 -0.242 c 0.011 -0.137 -0.092 -0.258 -0.229 -0.268 c -0.133 -0.022 -0.258 0.092 -0.269 0.23 l -0.018 0.25 C 45.123 48.523 45.228 48.642 45.366 48.65 z M 45.147 51.619 c 0.01 0.132 0.119 0.232 0.249 0.232 c 0.006 0 0.012 0 0.018 -0.001 c 0.138 -0.01 0.242 -0.129 0.232 -0.267 l -0.017 -0.245 c -0.009 -0.138 -0.132 -0.256 -0.266 -0.232 c -0.138 0.009 -0.242 0.128 -0.233 0.266 L 45.147 51.619 z M 46.593 57.371 c -0.13 0.047 -0.197 0.19 -0.15 0.32 l 0.087 0.235 c 0.038 0.1 0.133 0.161 0.234 0.161 c 0.029 0 0.06 -0.005 0.089 -0.017 c 0.129 -0.049 0.194 -0.193 0.145 -0.322 l -0.084 -0.228 C 46.866 57.392 46.723 57.325 46.593 57.371 z M 45.859 55.018 c 0.018 0 0.037 -0.002 0.055 -0.006 c 0.135 -0.03 0.219 -0.164 0.188 -0.299 l -0.05 -0.237 c -0.028 -0.137 -0.161 -0.217 -0.295 -0.195 c -0.135 0.028 -0.222 0.16 -0.195 0.295 l 0.053 0.247 C 45.641 54.938 45.744 55.018 45.859 55.018 z M 81.722 31.365 c -0.11 -0.08 -0.267 -0.058 -0.35 0.053 c -0.082 0.111 -0.059 0.268 0.053 0.35 l 0.198 0.148 c 0.046 0.034 0.099 0.051 0.151 0.051 c 0.075 0 0.15 -0.034 0.199 -0.099 c 0.083 -0.11 0.062 -0.267 -0.048 -0.35 L 81.722 31.365 z M 81.593 67.878 l -0.199 0.148 c -0.111 0.082 -0.135 0.238 -0.053 0.35 c 0.049 0.066 0.125 0.102 0.201 0.102 c 0.052 0 0.104 -0.016 0.148 -0.049 l 0.203 -0.15 c 0.11 -0.083 0.133 -0.239 0.05 -0.351 C 81.861 67.817 81.703 67.798 81.593 67.878 z M 59.431 70.927 c -0.051 0.128 0.012 0.273 0.14 0.325 l 0.116 0.046 c 0.03 0.012 0.062 0.018 0.093 0.018 c 0.1 0 0.193 -0.06 0.232 -0.157 c 0.051 -0.128 -0.012 -0.273 -0.14 -0.325 c 0 0 -0.059 -0.023 -0.06 -0.023 l -0.149 0.21 l 0.093 -0.232 C 59.631 70.739 59.482 70.799 59.431 70.927 z M 45.916 44.744 c -0.137 -0.027 -0.268 0.056 -0.298 0.19 l -0.052 0.244 c -0.028 0.135 0.059 0.267 0.194 0.295 c 0.017 0.004 0.034 0.005 0.051 0.005 c 0.116 0 0.22 -0.082 0.244 -0.2 l 0.051 -0.237 C 46.136 44.907 46.051 44.773 45.916 44.744 z M 68.39 52.561 c -1.115 0 -2.019 0.903 -2.019 2.019 c 0 0.749 0.413 1.396 1.019 1.744 v 0.989 c 0 0.553 0.447 1 1 1 s 1 -0.447 1 -1 v -0.989 c 0.605 -0.349 1.019 -0.995 1.019 -1.744 C 70.408 53.464 69.505 52.561 68.39 52.561 z" stroke-linecap="round" />
</g>
</g>
</g>
</svg>